<svg xmlns="http://www.w3.org/2000/svg"><style>:root svg:not(:target){display:none}</style><svg viewBox="0 0 32 32" fill="none" id="address-leaf"><path d="M21.49 9.98a14.2 14.2 0 0 0-5.11-5.07l-.38-.22-.38.22a14.11 14.11 0 0 0-7.05 12.72c.08 2.2.92 4.04 2.43 5.34 1.16 1 2.65 1.6 4.25 1.75v2.59h1.5v-12h-1.5v7.9a5.63 5.63 0 0 1-5.18-5.64 12.73 12.73 0 0 1 1.58-6.55 12.67 12.67 0 0 1 4.35-4.59 12.67 12.67 0 0 1 5.93 11.14 5.54 5.54 0 0 1-3.68 5.28v1.59a7.32 7.32 0 0 0 2.75-1.47 7.14 7.14 0 0 0 2.43-5.83c0-2.52-.67-5-1.94-7.16Z" fill="#000"></path></svg><svg viewBox="0 0 32 32" fill="none" id="address-mail"><path d="M23.88 9h-15.75c-.3 0-.59.12-.8.34a1.2 1.2 0 0 0-.33.83v11.66c0 .31.12.61.33.83.21.22.5.34.8.34h15.74c.3 0 .59-.12.8-.34.21-.22.33-.52.33-.83v-11.66c0-.31-.12-.61-.33-.83a1.1 1.1 0 0 0-.8-.34Zm-.87 12.83h-13.95l3.94-4.22-.81-.81-4.06 4.36v-10.1l6.99 7.2a1.1 1.1 0 0 0 1.58 0l7.18-7.39v10.21l-4.14-4.3-.8.83 4.07 4.22Zm-14.15-11.66h14.1l-7.05 7.27-7.05-7.27Z" fill="#000"></path></svg><svg viewBox="0 0 32 32" fill="none" id="address-phone"><path d="m12.56 6.5-.86.26a4.2 4.2 0 0 0-2.94 3.43c-.36 2.48.44 5.38 2.36 8.7 1.92 3.33 4.02 5.47 6.35 6.4a4.2 4.2 0 0 0 4.45-.84l.66-.62a2.4 2.4 0 0 0 .3-3.15l-1.64-2.25a1.8 1.8 0 0 0-1.98-.67l-2.46.75-.07.01c-.27.04-.9-.54-1.67-1.9-.82-1.4-.99-2.24-.76-2.45l1.25-1.17a3 3 0 0 0 .69-3.42l-.8-1.76a2.4 2.4 0 0 0-2.88-1.32Zm1.79 1.81.8 1.77a1.8 1.8 0 0 1-.42 2.05l-1.26 1.17c-.8.76-.53 2.06.55 3.93 1.01 1.75 1.94 2.62 2.94 2.47l.14-.03 2.51-.76a.6.6 0 0 1 .66.22l1.63 2.25a1.2 1.2 0 0 1-.15 1.58l-.65.62a3 3 0 0 1-3.18.6c-2.04-.82-3.97-2.77-5.76-5.88-1.8-3.11-2.53-5.76-2.21-7.94a3 3 0 0 1 2.1-2.45l.86-.26a1.2 1.2 0 0 1 1.44.66Z" fill="#000"></path></svg><svg viewBox="0 0 28 28" fill="none" id="burger-closed"><rect width="35.207" height="2.994" rx="1.497" transform="matrix(.69604 .718 -.69604 .718 3.084 1)" fill="#0F805D" fill-opacity=".75"></rect><rect width="35.207" height="2.994" rx="1.497" transform="matrix(.69604 -.718 .69604 .718 .379 26.164)" fill="#0F805D" fill-opacity=".75"></rect></svg><svg viewBox="0 0 60 60" fill="none" id="burger"><path d="M50.13 27.5h-40.26a2.37 2.37 0 0 0-2.37 2.38v.25a2.37 2.37 0 0 0 2.38 2.37h40.24a2.37 2.37 0 0 0 2.38-2.38v-.25a2.37 2.37 0 0 0-2.38-2.37Zm0 12.5h-40.26a2.37 2.37 0 0 0-2.37 2.38v.24a2.37 2.37 0 0 0 2.38 2.38h40.24a2.37 2.37 0 0 0 2.38-2.38v-.24a2.37 2.37 0 0 0-2.38-2.38Zm0-25h-40.26a2.37 2.37 0 0 0-2.37 2.38v.25a2.37 2.37 0 0 0 2.38 2.37h40.24a2.37 2.37 0 0 0 2.38-2.38v-.25a2.37 2.37 0 0 0-2.38-2.37Z" fill="#0F805D"></path></svg><svg viewBox="0 0 33 32" fill="none" id="hero-delivery"><path d="M25.83 9.33c0-1.46-1.2-2.66-2.66-2.66h-4v2.66h4v3.54l-4.64 5.8h-4.7v-6.67h-5.33a5.33 5.33 0 0 0-5.33 5.33v4h2.66a4 4 0 1 0 8 0h5.98l6.02-7.53v-4.47Zm-20 9.34v-1.34c0-1.46 1.2-2.66 2.67-2.66h2.67v4h-5.34Zm4 4c-.73 0-1.33-.6-1.33-1.34h2.67c0 .74-.6 1.34-1.34 1.34Z" fill="#0F805D"></path><path d="M7.17 8h6.66v2.67h-6.66v-2.67Zm18.66 9.33a4 4 0 1 0 0 8 4 4 0 0 0 0-8Zm0 5.34a1.34 1.34 0 0 1 0-2.67 1.34 1.34 0 1 1 0 2.67Z" fill="#0F805D"></path></svg><svg viewBox="0 0 33 32" fill="none" id="hero-ice"><path d="M16.5 28a.92.92 0 0 1-.6-.22.7.7 0 0 1-.25-.53v-1.94l-1.11.97a.92.92 0 0 1-.6.22.92.92 0 0 1-.62-.22.7.7 0 0 1-.25-.53c0-.2.1-.39.26-.53l2.32-2.03v-5.9l-5.84 2.95-.85 2.78c-.06.2-.2.35-.4.45-.2.1-.43.13-.65.08a.85.85 0 0 1-.52-.35.67.67 0 0 1-.08-.57l.4-1.32-1.92.96c-.2.1-.43.13-.65.08a.85.85 0 0 1-.52-.35.67.67 0 0 1-.08-.57c.06-.2.2-.35.4-.45l1.92-.97-1.52-.36a.91.91 0 0 1-.3-.13.8.8 0 0 1-.22-.22.66.66 0 0 1-.08-.57c.02-.1.07-.18.14-.26a.83.83 0 0 1 .25-.2.94.94 0 0 1 .65-.07l3.17.74 5.84-2.94-5.83-2.94-3.18.74a.97.97 0 0 1-.64-.08.77.77 0 0 1-.4-.46.67.67 0 0 1 .09-.56c.11-.17.3-.3.51-.35l1.52-.36-1.93-.97a.84.84 0 0 1-.25-.19.72.72 0 0 1-.15-.26.66.66 0 0 1 .08-.57.8.8 0 0 1 .23-.22.98.98 0 0 1 .95-.05l1.92.96-.4-1.32a.66.66 0 0 1 .07-.58.79.79 0 0 1 .23-.22.98.98 0 0 1 .96-.05c.1.05.18.12.25.2a.6.6 0 0 1 .14.26l.85 2.78 5.84 2.94v-5.89l-2.32-2.03a.75.75 0 0 1-.2-.24.67.67 0 0 1 0-.58.76.76 0 0 1 .2-.24.87.87 0 0 1 .27-.16.97.97 0 0 1 .94.16l1.1.97v-1.94c0-.2.1-.39.26-.53a.92.92 0 0 1 .6-.22c.23 0 .45.08.61.22a.7.7 0 0 1 .25.53v1.94l1.11-.97a.92.92 0 0 1 .6-.22c.24 0 .45.08.62.22a.7.7 0 0 1 .25.53c0 .2-.1.39-.26.53l-2.32 2.03v5.9l5.83-2.95.85-2.78c.06-.2.2-.35.4-.45a1 1 0 0 1 .66-.08c.22.05.4.18.52.35.11.17.14.38.08.57l-.4 1.32 1.92-.96a.92.92 0 0 1 1.17.27c.1.17.14.38.08.57-.06.2-.2.35-.4.45l-1.92.97 1.52.36c.22.05.4.18.52.35.11.17.14.38.09.57-.06.2-.2.35-.4.45a1 1 0 0 1-.66.08l-3.17-.74-5.83 2.94 5.83 2.94 3.17-.74a.97.97 0 0 1 .65.08c.2.1.35.26.4.45.06.2.03.4-.08.57-.12.17-.3.3-.52.35l-1.52.36 1.92.97c.2.1.34.26.4.45.06.2.03.4-.09.57-.11.17-.3.3-.51.35a.97.97 0 0 1-.65-.08l-1.92-.96.4 1.32a.66.66 0 0 1-.08.58.79.79 0 0 1-.22.22.98.98 0 0 1-.96.05.83.83 0 0 1-.25-.2.71.71 0 0 1-.15-.26l-.85-2.78-5.83-2.94v5.89l2.32 2.03a.7.7 0 0 1 .25.53.7.7 0 0 1-.25.53.92.92 0 0 1-.6.22.92.92 0 0 1-.61-.22l-1.11-.97v1.94a.7.7 0 0 1-.25.53.92.92 0 0 1-.6.22Z" fill="#0F805D"></path></svg><svg viewBox="0 0 33 32" fill="none" id="hero-leaf"><path d="M12.5 22c11.96 0 12.92-10.17 13-15a.98.98 0 0 0-1-1c-17 .32-17 8.55-17 16v4" stroke="#0F805D" stroke-width="2" stroke-linecap="round" stroke-linejoin="round"></path><path d="M7.5 22s0-6 8-7" stroke="#0F805D" stroke-width="2" stroke-linecap="round" stroke-linejoin="round"></path></svg><svg viewBox="0 0 110 24" fill="none" id="html-academy-logo"><path d="M7.14 7.69v7.81h-.76v-3.65h-4.63v3.65h-.77v-7.81h.77v3.48h4.63v-3.48h.76Zm7.5.68h-2.78v7.13h-.77v-7.13h-2.78v-.68h6.33v.68Zm8.1 7.13v-6.36l-2.83 4.94h-.49l-2.84-4.94v6.36h-.77v-7.81h.8l3.04 5.35 3.07-5.35h.78v7.81h-.77Zm2.72 0v-7.81h.77v7.13h4.51v.68h-5.28Zm10.97-7.81h.65l3.25 7.81h-.82l-1.01-2.44h-3.51l-1 2.44h-.83l3.27-7.81Zm1.9 4.76-1.58-3.86-1.6 3.86h3.17Zm5.29 3.16c-.42 0-.8-.08-1.16-.23a3 3 0 0 1-1.73-2.76c0-.54.12-1.04.37-1.49a2.77 2.77 0 0 1 2.5-1.46c.54 0 1.01.12 1.42.37.41.25.72.58.92 1l-.73.23a1.7 1.7 0 0 0-.68-.69c-.29-.17-.6-.25-.96-.25-.38 0-.73.1-1.04.3-.32.2-.57.47-.76.81-.19.35-.28.74-.28 1.18a2.43 2.43 0 0 0 1.05 2.02 1.96 1.96 0 0 0 1.76.18c.23-.09.43-.2.6-.35.18-.16.3-.32.35-.5l.74.22c-.1.27-.27.52-.52.74a2.66 2.66 0 0 1-1.85.68Zm3.08-1.76c0-.36.1-.67.31-.92.2-.27.5-.47.85-.6.37-.16.79-.23 1.26-.23a6 6 0 0 1 1.68.27v-.49c0-.48-.15-.87-.43-1.15a1.6 1.6 0 0 0-1.19-.43c-.3 0-.61.06-.91.17-.3.11-.6.28-.93.5l-.28-.53c.37-.26.74-.45 1.1-.57.36-.13.72-.2 1.1-.2.7 0 1.26.2 1.67.6.41.4.61.97.61 1.68v2.65c0 .1.03.18.07.23.04.04.11.07.21.08v.59a6.35 6.35 0 0 0-.34.02.54.54 0 0 1-.42-.17.58.58 0 0 1-.15-.36l-.01-.41c-.26.33-.6.58-1 .77a3.3 3.3 0 0 1-1.26.26c-.37 0-.7-.08-1-.23-.3-.16-.52-.38-.7-.64a1.71 1.71 0 0 1-.24-.89Zm3.84.44c.08-.1.15-.2.2-.3.03-.1.06-.18.06-.25v-.84a4.55 4.55 0 0 0-1.59-.3c-.53 0-.97.11-1.3.33-.33.2-.49.5-.49.87a1.2 1.2 0 0 0 .65 1.06c.21.12.46.18.75.18.36 0 .69-.07 1-.21.31-.14.56-.32.72-.54Zm2.24-1.64a3.16 3.16 0 0 1 1.26-2.58 2.43 2.43 0 0 1 2.63-.02c.38.25.68.56.9.92v-3.5h.74v7.13c0 .1.02.18.06.23a.3.3 0 0 0 .2.08v.59c-.14.02-.26.03-.34.02a.6.6 0 0 1-.4-.18.54.54 0 0 1-.18-.39v-.56a2.5 2.5 0 0 1-.93.89 2.52 2.52 0 0 1-3.18-.57 3.2 3.2 0 0 1-.77-2.06Zm4.78.88v-1.77a2.4 2.4 0 0 0-1.98-1.43c-.3 0-.59.07-.84.2a2 2 0 0 0-.64.52 2.63 2.63 0 0 0-.4 2.49c.11.27.26.52.46.74a1.99 1.99 0 0 0 1.52.67c.2 0 .39-.04.6-.11a2.29 2.29 0 0 0 1.05-.76c.12-.18.2-.36.23-.55Zm4.92 2.08a2.82 2.82 0 0 1-2.06-.88 3.17 3.17 0 0 1-.45-3.59 2.86 2.86 0 0 1 3.97-1.06 2.96 2.96 0 0 1 1.36 2.53v.29h-4.91a2.3 2.3 0 0 0 1.1 1.86 2.08 2.08 0 0 0 2.08-.01c.34-.19.57-.44.7-.75l.65.18c-.12.27-.3.52-.54.74a2.95 2.95 0 0 1-1.9.69Zm-2.11-3.24h4.23a2.34 2.34 0 0 0-.34-1.1 1.93 1.93 0 0 0-.76-.74c-.3-.19-.65-.28-1.02-.28a2.12 2.12 0 0 0-1.78 1.02c-.2.32-.3.68-.33 1.1Zm14.61 3.13h-.74v-3.2c0-.67-.11-1.16-.32-1.48a1.07 1.07 0 0 0-.95-.47c-.43 0-.82.16-1.16.46-.34.31-.58.7-.72 1.2v3.49h-.75v-3.2c0-.68-.1-1.17-.3-1.48a1.08 1.08 0 0 0-.95-.47c-.43 0-.81.15-1.16.45-.34.3-.58.7-.72 1.2v3.5h-.75v-5.73h.68v1.3c.24-.45.55-.8.93-1.04s.8-.36 1.26-.36c.48 0 .86.14 1.16.4.29.28.47.63.53 1.07.27-.48.58-.85.95-1.1a2.23 2.23 0 0 1 2.08-.2c.23.12.4.3.54.51.14.21.24.47.3.78.06.3.1.64.1 1.01v3.36Zm1.8 1.76a4.2 4.2 0 0 0 .5 0 .45.45 0 0 0 .26-.15c.08-.1.17-.26.28-.51.12-.25.27-.62.47-1.1l-2.5-5.73h.8l2.1 4.96 1.93-4.96h.75l-2.97 7.4a1.22 1.22 0 0 1-.62.66c-.15.08-.33.12-.55.12a1 1 0 0 1-.2 0c-.07 0-.15 0-.25-.02v-.67Zm23.33-17.26h-.07l-10.04.99v17.38l10.04 5.63 9.96-5.63v-17.38l-9.89-.99Zm8.48 8.52-8.55-4.79v-.07h-.08l-.07-.07v.07l-8.48 4.86v-6.34l8.55-.84 8.63.84v6.34Zm-8.63-3.73 8.55 4.71-3.34 1.83-5.28-2.95v.98l4.39 2.46-.67.36-3.72-2.12v.99l2.82 1.62-.6.35-2.22-1.27v.99l1.41.77-1.34.78-8.47-4.72 8.47-4.78Zm-8.55 5.84 8.48 4.78v.7l-5.88-3.3v.98l5.95 3.38v.78l-5.95-3.31v.98l5.95 3.38 6.03-3.45v-3.66l2.52-1.4v7.03l-8.55 4.86-8.55-4.78v-6.97Z" fill="#000"></path></svg><svg viewBox="0 0 76 32" fill="none" id="leafs-with-bubbles"><path d="M63.42 14.4c-.6-.88-1.18-1.78-1.7-2.7-.72-1.26-2.18-5.6-.18-6.68-.45 1.86 1.48 4.6 2.09 6.22.75 1.98 1.52 4.54 2.68 6.58-1.09-.96-2-2.12-2.89-3.42Zm3.31-1.67c.17 1.62.4 3.24.65 4.86-.69-1.67-1.58-3.3-2.26-4.91-1.1-2.59-1.87-5.3-2.96-7.87l.06-.01c3.29-.44 4.28 5.77 4.51 7.93Zm.3 16.66c-.39.82-1.52.94-1.99.1-.32-.57.2-1.5.59-1.9l.15-.14c.1.06.25.03.3-.08l.01-.02c.3.04.5.48.95.7.07.04.15.06.22.06.02.45-.06.9-.24 1.28Zm-7.38-3.44c-.53 1.54-1.2 3.28-2.34 4.45-.37.38-.71.37-1.01.17.37-2.1.86-3.84 1.82-5.8.58-1.19 1.3-2.34 1.83-3.56l.4-.31c-.09 1.79-.1 3.3-.7 5.05Zm-3.61-.57c.6-1.03 1.48-2.02 2.42-2.9-.53 1.06-1.03 2.13-1.53 3.18-.56 1.2-1.2 2.57-1.44 3.94l-.06-.1c-.77-1.33-.08-2.94.6-4.12Zm-11.8-11.6a28.24 28.24 0 0 1-1.9-2.75c-.4-.66-.54-1.42-1-2.02-.07-.1-.2-.08-.28 0-.04-1.26.12-2.64.3-3.83.15-1 .51-1.69.99-2.11.77 4.54 1.98 9.07 4.23 13.06a14.2 14.2 0 0 1-2.33-2.34Zm2.45-8.2c.75 3.37-.72 6.82.25 10.05-.83-1.97-1.69-3.93-2.39-5.96-.78-2.25-.8-4.74-1.7-6.93 1.4-.64 3.3.48 3.84 2.84Zm-3.71 19.62c-.02-.82.8-1.33 1.48-1.48.85-.18.9.68.95 1.4 0 .06.02.11.05.15-.61.98-2.45 1.32-2.48-.07Zm-5.62-5.43c-1.43 2-2.19 4.42-3.96 6.18-.79.78-1.57.95-2.2.73 1.4-4.12 4.53-7.14 8.2-9.05a9.44 9.44 0 0 0-2.04 2.14Zm-7.53 3.89a6.5 6.5 0 0 1 1.97-3.23c1.56-1.58 3.43-2.32 5.4-2.83-.83.57-1.59 1.27-2.17 1.79a17.1 17.1 0 0 0-4.71 6.65 2.95 2.95 0 0 1-.49-2.38Zm-8.79-19.42c-.4-1.1-.08-1.93.93-2.47 1.22 3.51 2.65 7.1 4.67 10.22a16.2 16.2 0 0 1-5.6-7.75Zm2.17-2.92c.75.28 1.4.71 1.95 1.31 1.42 1.35 1.63 3.48 1.74 5.33.08 1.47.03 2.9.43 4.25-1.01-1.92-2-3.85-2.93-5.8-.72-1.53-1-3.46-2.02-4.82.25-.1.52-.2.83-.27Zm-14.18 29.23h-.16c1.15-3.85 2.08-7.71 3.66-11.39-.25.9-.37 1.88-.49 2.66-.3 2.06-.65 4.38-.39 6.47-.6 1.07-1.29 2.08-2.62 2.26Zm-1.5-4.34c.58-2.05 2.03-3.7 3.44-5.36a27.45 27.45 0 0 0-2.75 9.52c-1.06-.72-.94-3.3-.7-4.16Zm-1.23-11.89c-1.03-.36-2-.92-2.91-1.5-.38-.26-3.25-3.54-2.52-4.08 1.84 1.57 4 2.8 6.08 3.97 1.67.94 3.46 2 5.31 2.7-2-.28-3.99-.38-5.96-1.09Zm7.23 1c-1.9-1.33-4.17-2.22-6.2-3.3-1.93-1.04-3.78-2.25-5.7-3.34 4.7.18 9.38 2.54 11.9 6.63Zm3.78 9.22c-1.21-.06-1.67-1.28-1.06-2.24.69-1.1 1.88-.54 2.73-.04.09.93-.64 2.32-1.67 2.28Zm-14.4 1.79c-.51.02-.7-.53-.74-.96-.07-.53.28-.96.67-1.24.37-.26.83-.4 1.27-.29.31.08.45.47.75.6-.2.91-1.04 1.84-1.95 1.89Zm11.67-20.93c1.16.29.95 2.02.68 2.87a2.5 2.5 0 0 1-.8 1.25c-.81.16-1.63-.78-2.03-1.66-.73-1.58.57-2.85 2.15-2.46Zm16.76 1.33c-.42-1.1-.06-2.28 1.06-2.69 1.07-.39 1.78.5 1.8 1.55 0 .5-.15.97-.42 1.38-.26.41-.76.54-1.13.8-.04.02-.05.05-.07.07-.55-.04-.96-.38-1.24-1.11Zm22.2 3.57c.7-.39 1.32.23 1.53.87.31.91-.19 1.38-.5 2.16l-.02.04c-1.58.05-2.83-2.04-1-3.07Zm21.92 8.13c-2.16.59-4.34.93-6.54 1.08l-.4-.2c.06-2.19-.64-4.42-.86-6.58-.18-1.67-.32-3.5-1.08-5.02-1-1.95-3-4.7-5.43-3.44-2.9 1.53-.87 6.69.2 8.63 1.27 2.34 3.09 5.33 5.55 6.7-2.18.04-4.37-.08-6.57-.33-2.4-.83-3.69-3.1-4.98-5.18 1.37-.34 1.44-2.47.96-3.6-.63-1.5-2.05-2.13-3.5-1.48-1.64.73-2.12 2.78-1.16 4.27.42.64 1.1 1.13 1.86 1.22a2 2 0 0 0 1.2-.2c.2 1.29 1.07 2.4 1.9 3.34.44.5.93.97 1.48 1.34-3.4-.49-6.82-1.22-10.2-2 0-1.55-.38-3.06-.28-4.64.1-1.62.26-3.23.21-4.86-.06-2.23-.82-4.93-3.06-5.79-4.8-1.84-4.8 4.83-3.83 7.86-.06 1.63 1.79 3.7 2.6 4.8a8.93 8.93 0 0 0 2.23 2.13c-3.07-.71-6.1-1.44-9.09-2.02-.75-.7-1.42-1.47-2-2.31-.76-1.09-1-2.25-1.36-3.43 2.55-.11 2.88-7.2-1.4-5.74-1.78.6-2.3 2.7-1.54 4.33.37.81 1.38 1.64 2.23 1.55 0 1.15.67 2.39 1.21 3.29.48.78 1.06 1.5 1.74 2.1-2.2-.4-4.54-.7-6.9-.83l-.31-.2c-.5-3.45.42-8.08-2-10.9-1.26-1.5-4.1-3.57-5.74-1.34-1.62 2.21-.1 5 1.16 7a15.81 15.81 0 0 0 5.37 5.38c-2.02-.05-4.05.04-6.04.3-.76-.44-1.52-.86-2.26-1.31-1.1-.67-2.03-1.53-3.07-2.29.32-.43.54-.94.7-1.45.57-1.9.06-4.26-2.13-4.5a3.12 3.12 0 0 0-2.95 1.36c-.58.94-.29 2.18.17 3.1.26.54.66 1 1.12 1.33 0 .05.01.1.03.14a1.58 1.58 0 0 0 2.2.78c.2-.1.38-.23.55-.39 1.05 1.62 2.88 2.6 4.67 3.37-2.03.33-4 .85-5.86 1.6-2.12-5.38-8.49-7.66-13.78-7.68-.26 0-.43.22-.45.47-.52 5.7 6.88 8.78 11.93 8.32a18.58 18.58 0 0 0-6.79 6.37 2 2 0 0 0-.9-.52c-1.1-.28-2.37.45-2.99 1.35a2.8 2.8 0 0 0 .24 3.4c.77.88 2.06.53 2.85-.1a3.1 3.1 0 0 0 1.18-2.94.31.31 0 0 0-.05-.12v-.03c.06-.02.1-.05.15-.1a44.31 44.31 0 0 1 5-4.23c-2.73 2.7-5.39 6.57-3.88 9.83 1.83 3.98 5.77.85 6-2.47 0-.12-.1-.17-.2-.16.22-1.1.27-2.26.38-3.35.14-1.4.37-2.75.69-4.11.15-.66.41-1.24.54-1.88a23.83 23.83 0 0 1 6.74-2.2 7.18 7.18 0 0 0-1.85 2.08 10.6 10.6 0 0 0-1.36 3l-.27-.02c-.87.01-1.6.6-2.06 1.33-1.02 1.62-.17 3.57 1.7 3.83 1.54.22 2.53-1.2 2.7-2.62.08-.75-.2-1.52-.72-1.82a1.8 1.8 0 0 0-.43-.4c.3-.64.5-1.4.72-2.02a6.78 6.78 0 0 1 2.57-3.51c.45-.06.91-.11 1.38-.15 4.84-.44 9.72.3 14.5 1.3-4.94.35-11.28 5.24-8.84 10.22 1.32 2.7 4.62 1 5.95-.57 2.44-2.9 3.1-6.9 6.44-8.89l1.8.4c1.63.36 3.3.75 5 1.14a9.51 9.51 0 0 0-2.65 3.94 2.4 2.4 0 0 0-.94-.19 2.94 2.94 0 0 0-2.91 3.02c.1 1.81 1.78 2.39 3.24 1.74a2.5 2.5 0 0 0 1.42-1.46c.1-.34.08-.64-.02-.92a1.65 1.65 0 0 0-.22-1.78c.34-.51.6-1.06.9-1.62.47-.94 1.07-1.8 1.74-2.6 3.53.8 7.13 1.55 10.74 1.97l-.07.13c-2.11 1.26-4.14 3.06-5 5.42-.7 1.95-.38 5.1 1.94 5.74 1.86.52 3.2-2.42 3.77-3.72 1.08-2.48 1.51-4.78.95-7.4 1.91.17 3.82.23 5.71.15a8.07 8.07 0 0 0-1.34 2.88 6.7 6.7 0 0 0-.24 1.99c-.2.1-.38.21-.54.35-1.15.98-1.78 2.9-.92 4.26a2.42 2.42 0 0 0 4.18-.2 3.2 3.2 0 0 0-.08-3.02 1.8 1.8 0 0 0-1.17-1.5l-.2-.06c.03-.51.03-1.03.1-1.5.17-1.12.57-2.22 1.07-3.23 2.74-.18 5.44-.68 8.08-1.63.54-.19.32-1.03-.23-.88Z" fill="#8E9892" fill-opacity=".7"></path></svg><svg viewBox="0 0 228 33" fill="none" id="leafs"><path d="M99.68 16.61a.23.23 0 0 0-.05-.13h.12l-.07.13Zm-9.59 13.5c.62-4.87 3.94-10.98 9.42-13.27.03 0 .05-.02.07-.04-1.35 2.56-2.06 5.28-3.58 7.8-1.32 2.2-3.56 3.94-5.9 5.5Zm-18.04-1.74c-.47.8-3.18 4.26-2.94 2.23.2-1.69.75-3.33 1.37-4.95 1.29-3.32 3.69-6.11 6.88-8.46-.82.97-1.17 2.24-1.55 3.31a44.69 44.69 0 0 1-3.76 7.87Zm-7.13-22.67c-1.97-2.28 1.58-1.05 3.24-.64 2.73.69 5.33 1.85 7.7 3.1 3.63 1.9 7.13 3.96 9.42 6.87-7.89-1.25-15.69-3.9-20.36-9.33Zm23.77.68c-.9-.6-1.69-1.27-2.47-1.96.17.16-2.43-3.06-2.3-3.02a42.16 42.16 0 0 1 13.68 6.46c2.93 2.12 4.78 5.02 7.58 7.22-3.99-1.4-7.32-3.37-10.88-5.35a78.27 78.27 0 0 1-5.6-3.35Zm-42.61 23.07c-1.56 1.47-1.95 1.12-1.94-.67 0-1.9 1.1-3.7 2.3-5.3 2-2.65 5.18-4.7 8.02-6.79h.1c-2.62 4.42-4.42 8.93-8.48 12.76Zm-15.52-9.07c-1.71 2.4-3.21 4.97-6.66 5.95.73-4.45 4.92-7.9 10.12-9.5-1.52.87-2.62 2.37-3.46 3.55Zm-28.24-4.52c5.75-1.56 11.23-1.4 17-.3l-3.24.03c-.4 0-.55.3-.47.52-4.57.54-9.35 1.76-13.3-.25Zm17.61-10.75c7.57.07 13.15 5.2 18.07 9.41-3.3-1.22-6.95-1.83-10.07-3.47-3.05-1.6-5.38-3.93-8-5.94Zm19.44-1.56c9.05 1.4 16.4 5.14 21 11.35-8.1-1.57-17.28-5.21-21-11.35Zm72.26 12.22-4.85-.1c.06-.11.05-.25-.08-.37-3.51-3.14-6.26-6.63-10.35-9.35-3.9-2.6-8.6-4.29-13.38-5.62-.33-.1-.74.2-.6.47 1.93 3.7 5.4 6.19 9.43 8.54 3.54 2.07 7.63 5.13 12.06 6.26-5.74-.12-11.5-.2-17.24-.26-1.29-2.82-4.77-4.81-7.75-6.52a42.02 42.02 0 0 0-15.54-5.42c-.36-.05-.67.16-.58.45 1.06 3.56 5.3 6.17 8.96 8.14a36.11 36.11 0 0 0 8.26 3.3 2839 2839 0 0 0-18.46-.02c-2.55-7.35-14.16-11.49-22.9-12.68-.36-.04-.82.19-.66.51 2.97 5.84 11.5 10.6 19.6 12.19-5.86.02-11.73.05-17.59.1a.35.35 0 0 0-.13-.11c-.23-.11-.48-.2-.72-.31-5.28-4.99-11.57-11.29-20.67-10.78-.52.03-.85.51-.44.83 2.76 2.1 5.24 4.55 8.34 6.35 3.34 1.94 7.29 3.14 11.28 4.04l-15.31.13c-6.77-2.8-14.99-2.74-21.93-.37-.44.15-.5.7-.16.94 2.56 1.7 5.73 1.9 8.98 1.84 3.9-.07 8.96-.23 12.66-1.26.15-.04.22-.14.23-.24l10.23.08c-5.41 1.56-9.2 5.78-9.45 10.33-.01.24.31.4.6.35 2.9-.6 4.74-2.12 6.27-4.07.9-1.14 1.64-2.36 2.54-3.5 1.07-1.37 2.37-2.08 4.02-2.92.09-.04.13-.1.16-.15 5.54.05 11.07.09 16.61.11-6.02 3.58-11.65 8.64-9.95 14.9.06.26.5.47.82.37 3.02-.96 4.8-3.54 6.36-5.63 2.3-3.07 3.77-6.3 5.34-9.61v-.02c6.93.03 13.86.05 20.79.02-5.82 3.23-9.2 10.18-8.71 15.5.02.22.25.49.59.46 2.87-.26 4.67-3.76 5.59-5.5 1.73-3.27 2.67-7.62 5.34-10.47a1626 1626 0 0 0 19.35-.2c-6.45 1.8-10.12 10.04-9.95 14.8.02.47.71.65 1.15.36 6.25-4.13 8.82-9.12 10.91-15.2 3.65-.07 7.3-.14 10.93-.24.38-.01.38-.44 0-.45Zm16.62.71h.12a.23.23 0 0 0-.05.13l-.07-.13Zm3.75 8.12c-1.52-2.52-2.23-5.24-3.58-7.8l.07.04c5.48 2.29 8.8 8.4 9.42 13.27-2.35-1.57-4.6-3.3-5.91-5.5Zm20.19-4.1c-.38-1.07-.73-2.34-1.55-3.31 3.2 2.35 5.6 5.14 6.88 8.46a20.6 20.6 0 0 1 1.37 4.95c.24 2.03-2.47-1.43-2.94-2.23a44.73 44.73 0 0 1-3.76-7.87Zm-9.47-5.47c2.29-2.9 5.8-4.97 9.42-6.88a35.05 35.05 0 0 1 7.7-3.09c1.66-.4 5.21-1.64 3.24.64-4.67 5.43-12.47 8.08-20.36 9.33Zm-9.01-5.3c-3.57 1.98-6.9 3.96-10.89 5.35 2.8-2.2 4.65-5.1 7.58-7.22a42.17 42.17 0 0 1 13.69-6.46c.12-.04-2.49 3.18-2.3 3.02-.8.69-1.59 1.36-2.48 1.96a78.18 78.18 0 0 1-5.6 3.35Zm39.74 6.96h.09c2.84 2.09 6.01 4.14 8.01 6.8 1.2 1.59 2.3 3.4 2.31 5.29 0 1.79-.38 2.14-1.94.67-4.06-3.83-5.86-8.34-8.47-12.76Zm20.53.14c5.2 1.6 9.4 5.05 10.12 9.5-3.45-.98-4.95-3.55-6.66-5.95-.84-1.18-1.94-2.68-3.46-3.55Zm18.42-.72c.07-.23-.08-.51-.48-.52l-3.25-.02c5.78-1.11 11.26-1.28 17.01.3-3.94 2-8.72.78-13.28.24Zm-12.33-5.06c-3.12 1.64-6.77 2.25-10.07 3.47 4.92-4.2 10.5-9.34 18.07-9.41-2.62 2-4.95 4.34-8 5.94Zm-32.44 3.85c4.6-6.21 11.95-9.95 21-11.35-3.72 6.14-12.9 9.78-21 11.35Zm-51.26 1.32c3.64.1 7.28.17 10.93.24 2.08 6.08 4.66 11.07 10.9 15.2.45.3 1.14.11 1.16-.37.17-4.75-3.5-12.99-9.95-14.8 6.45.11 12.9.17 19.35.2 2.67 2.86 3.6 7.2 5.34 10.49.92 1.73 2.72 5.23 5.6 5.49.33.03.56-.24.58-.46.49-5.32-2.89-12.27-8.7-15.5 6.92.03 13.85.01 20.78-.02v.02c1.57 3.32 3.04 6.54 5.33 9.61 1.56 2.09 3.35 4.67 6.37 5.63.32.1.76-.11.82-.37 1.7-6.26-3.93-11.32-9.95-14.9 5.54-.02 11.07-.06 16.6-.11.04.05.08.1.17.15 1.65.84 2.95 1.55 4.02 2.91.9 1.15 1.64 2.37 2.54 3.51 1.53 1.95 3.36 3.48 6.27 4.07.29.06.62-.11.6-.35-.26-4.55-4.04-8.77-9.45-10.33l10.24-.08c0 .1.08.2.22.24 3.7 1.03 8.76 1.19 12.66 1.26 3.24.06 6.42-.14 8.98-1.84.34-.23.28-.79-.16-.94-6.94-2.37-15.16-2.43-21.93.37l-15.31-.13c4-.9 7.94-2.1 11.28-4.04 3.1-1.8 5.58-4.26 8.34-6.35.41-.32.08-.8-.44-.83-9.1-.5-15.39 5.8-20.67 10.78l-.72.3a.35.35 0 0 0-.13.12c-5.86-.05-11.73-.08-17.59-.1 8.1-1.58 16.63-6.35 19.6-12.19.16-.32-.3-.55-.65-.5-8.75 1.18-20.36 5.32-22.91 12.67-6.16-.01-12.31 0-18.47.03 3.08-.74 6.1-2.14 8.27-3.3 3.66-1.98 7.9-4.59 8.96-8.15.1-.29-.22-.5-.58-.45a42.01 42.01 0 0 0-15.54 5.42c-2.98 1.7-6.47 3.7-7.75 6.52-5.75.05-11.5.14-17.24.26 4.43-1.13 8.52-4.2 12.06-6.26 4.04-2.35 7.5-4.85 9.44-8.54.14-.27-.28-.56-.6-.47-4.78 1.33-9.5 3.03-13.39 5.62-4.1 2.72-6.84 6.21-10.35 9.35-.13.12-.14.26-.08.36l-4.85.11c-.38 0-.38.44 0 .45Z" fill="#8E9892" fill-opacity=".7"></path></svg><svg viewBox="0 0 133 60" fill="none" id="logo-text"><path d="M16.07 21.28s-2.08 1.3-2.54 3.41c-.46 2.13 0 4.45 0 4.45s-3.26 1.4-3.26 5.77c0 4.37 2.75 5.6 2.75 5.6s.03 5.17 3.1 7.95c3.08 2.79 6.31 2.8 6.31 2.8s1.68 3.67 6.62 3.67 6.62-3.67 6.62-3.67 3.34-.5 6.3-2.8c2.96-2.29 2.88-7.94 2.88-7.94s2.98-1.24 2.98-5.61c0-4.38-3.26-5.77-3.26-5.77s.47-2.32 0-4.45c-.46-2.12-2.54-3.4-2.54-3.4" fill="#B22EC8"></path><path d="M44.67 27.86c0-8.94-7-11.45-15.64-11.45-8.63 0-15.63 2.52-15.63 11.45s7 16.17 15.63 16.17c8.64 0 15.64-7.24 15.64-16.17Z" fill="#B22EC8"></path><path d="M29.53 54.92s4.23-3.05 3.95-10.09c1.82-1.96 2.38-4.59.73-7.78 2.8-4.11 2.5-8.56-.84-11.94 1.38-2.05.66-3.83-.9-5.16 0 0 4.48 2.27 7.9-.98 0 0 7.21 5.36 4.2 10.17 0 0 7.95 5.56.28 11.38 0 0 1.12 8.86-8.99 10.7 0 0-2.66 3.12-6.33 3.7Z" fill="#6A107A"></path><path d="M44.93 9.38c-3.44 16.61-14 10.95-15.43 8.03-1.43-2.92-.05-14.55 15.43-8.03Z" fill="#0F805D"></path><path d="M13.17 9.38c3.44 16.61 14 10.95 15.43 8.03 1.43-2.92.05-14.55-15.43-8.03Z" fill="#0F805D"></path><path d="M44.93 9.38c-3.44 16.61-14 10.95-15.43 8.03-1.43-2.92-.05-14.55 15.43-8.03v0Z" stroke="#000" stroke-width="2" stroke-miterlimit="10" stroke-linecap="round" stroke-linejoin="round"></path><path d="M36.71 12.74c-2.52 1-5.75 2.62-7.18 4.72m-16.36-8.08c3.44 16.61 14 10.95 15.43 8.03 1.43-2.92.05-14.55-15.43-8.03v0Z" stroke="#000" stroke-width="2" stroke-miterlimit="10" stroke-linecap="round" stroke-linejoin="round"></path><path d="M21.39 12.74c2.52 1 5.75 2.62 7.18 4.72m-12.5 3.82s-2.08 1.3-2.54 3.41c-.46 2.13 0 4.45 0 4.45s-3.26 1.4-3.26 5.77c0 4.37 2.75 5.6 2.75 5.6s.03 5.17 3.1 7.95c3.08 2.79 6.31 2.8 6.31 2.8s1.68 3.68 6.62 3.68 6.62-3.68 6.62-3.68 3.34-.5 6.3-2.8c2.96-2.29 2.88-7.94 2.88-7.94s2.98-1.24 2.98-5.61c0-4.38-3.26-5.77-3.26-5.77s.47-2.32 0-4.45c-.46-2.12-2.54-3.4-2.54-3.4" stroke="#000" stroke-width="2" stroke-miterlimit="10" stroke-linecap="round" stroke-linejoin="round"></path><path d="M34.03 24.56s-2.1 2.3-4.7 2.3m-4.9-2.3s2.11 2.3 4.71 2.3m11.19 6.08c0 2.4-2 4.36-4.47 4.36m-4.63-4.36c0 2.4 2 4.36 4.46 4.36m-8.4-4.36c0 2.4-2 4.36-4.46 4.36m-4.64-4.36c0 2.4 2 4.36 4.47 4.36m11.1 7.59c-.84 1.15-2.55 1.94-4.52 1.94m-4.8-2.09c.8 1.24 2.57 2.1 4.61 2.1m-4.65-1.8c0 1.04-.62 1.97-1.6 2.62m11-2.62c0 1.13.74 2.13 1.9 2.8" stroke="#000" stroke-width="2" stroke-miterlimit="10" stroke-linecap="round" stroke-linejoin="round"></path><path d="M18.86 35.56a4.38 4.38 0 0 1-3.18 4.18m4.47-15.2c0 2.57-2 4.66-4.47 4.66m21.68-4.67c0 2.58 2 4.67 4.46 4.67m-2.15 6.36a4.37 4.37 0 0 0 2.94 4.1" stroke="#000" stroke-width="2" stroke-miterlimit="10" stroke-linecap="round" stroke-linejoin="round"></path><path d="M76.48 45.2c-.61 0-.97-.3-1.08-.92-.13-1.01-.2-1.97-.2-2.88-.08-2.05-.15-4.19-.2-6.4-.03-2.24-.04-3.87-.04-4.88-.59.27-1.05.64-1.4 1.12a8.9 8.9 0 0 0-.92 1.76 11.2 11.2 0 0 0-.72 3.88v1l-.04 1.48c-.03.83-.1 1.73-.24 2.72a3.8 3.8 0 0 1-2 3c-.19.1-.43.16-.72.16-.35 0-.64-.08-.88-.24-.21-.19-.28-.44-.2-.76a.73.73 0 0 1 .24-.4c.1-.08.25-.16.44-.24.21-.08.37-.16.48-.24.4-.37.6-.88.6-1.52l.04-3.36c.05-1.3.12-2.3.2-3a11.81 11.81 0 0 1 1.36-4.12 9 9 0 0 1 .88-1.48 6.4 6.4 0 0 1-2.96-2.6c-.53-1.04-.8-2.56-.8-4.56 0-1.57.28-3.12.84-4.64.56-1.5 1.48-2.44 2.76-2.84l1.76-.6c.24-.1.5-.16.8-.16.56 0 1.2.24 1.92.72.45.27.68.7.68 1.32a77.59 77.59 0 0 0-.24 5.08v8.88a188.26 188.26 0 0 0 .2 9.32c.05.85.1 1.56.12 2.12l.12 2.2v.24c0 .35-.05.57-.16.68-.1.1-.32.16-.64.16Zm-1.68-29.04-.92.32c-.45.16-.85.35-1.2.56-.4.19-.77.59-1.12 1.2a8.95 8.95 0 0 0-.76 1.88 4.8 4.8 0 0 0-.24 1.52l.08 1.76c0 .83.01 1.48.04 1.96.03.75.24 1.37.64 1.88a3.4 3.4 0 0 0 1.76 1c.3.08.63.2 1 .36.4.13.7.24.88.32l-.16-12.76Zm7.64 29.16-.16-.56c-.06-.27-.07-.5-.04-.68.05-3.1.13-5.4.24-6.92a70 70 0 0 0 .04-2.48c0-1.97-.1-4.36-.28-7.16-.16-3.41-.24-6-.24-7.76 0-.4.16-.76.48-1.08.32-.32.7-.48 1.16-.48 1.52 0 2.84.12 3.96.36.53.1.88.3 1.04.56.16.24.21.65.16 1.24a2.12 2.12 0 0 1-1.76.28c-.24-.05-.88-.1-1.92-.16h-.08c-.38 0-.56.2-.56.6-.14 3.87-.2 6.07-.2 6.6a370.84 370.84 0 0 0 .2 7.64 59.72 59.72 0 0 0-.12 3.88c0 2.21.04 3.76.12 4.64-.03.59-.12.99-.28 1.2-.16.24-.46.36-.88.36l-.88-.08Zm13.77.44c-.7 0-1.33-.23-1.92-.68a4.75 4.75 0 0 1-1.44-1.76 15.87 15.87 0 0 1-1.44-5.32 39.95 39.95 0 0 1-.36-5.24c0-.32.01-.59.04-.8v-.72c0-.13-.01-.2-.04-.2v-.72l.04-2.8c.03-.85.13-2.21.32-4.08.13-1.28.44-2.52.92-3.72a3 3 0 0 1 .72-1.2c.3-.3.63-.44 1-.44a6.7 6.7 0 0 1 5.04 2.2c.53.67.99 1.5 1.36 2.48.37.96.64 1.99.8 3.08.16 1.12.24 2.3.24 3.56v.32c0 .83.01 1.57.04 2.24l.04 2.28c0 7.68-1.79 11.52-5.36 11.52Zm-.16-1.68c.48 0 .92-.19 1.32-.56.4-.4.7-.93.92-1.6.5-1.36.81-2.83.92-4.4.13-1.36.2-2.53.2-3.52 0-1.2-.1-2.77-.28-4.72a65.05 65.05 0 0 1-.24-4.6v-.72a4.29 4.29 0 0 0-1.04-2.64 2.84 2.84 0 0 0-2.28-1.12c-.9 0-1.5.52-1.8 1.56-.27.83-.4 1.9-.4 3.2 0 .5.01.93.04 1.28v1.08l-.08 1.84a19.5 19.5 0 0 0-.08 1.84c0 1.44.04 2.87.12 4.28a35 35 0 0 0 .8 5.84c.43 1.97 1.05 2.96 1.88 2.96Zm23.84 5.84c-.21.05-.37.08-.48.08-.32 0-.54-.2-.68-.6-.1-.32-.16-.72-.16-1.2l.04-2.76c0-.16-.01-.3-.04-.44l-.08-.4h-4.6c.27 0-.37.13-1.92.4-1.52.24-2.7.4-3.56.48l-1.8.16-2 .2v.88c.03.35.03.76 0 1.24v.2c0 .43-.1.75-.32.96-.21.21-.41.32-.6.32-.1 0-.26-.05-.48-.16a1.9 1.9 0 0 1-.8-1.44l-.12-2.92c-.05-1.04.38-1.56 1.28-1.56.51-.03.91-.16 1.2-.4.3-.24.64-.61 1.04-1.12.4-.53.71-1.12.92-1.76a24.74 24.74 0 0 0 1.2-5.36c.11-.96.24-2.33.4-4.12.24-2.8.36-5.61.36-8.44l-.04-2.24c0-.5.15-.92.44-1.24.3-.35.7-.52 1.2-.52.16 0 .28.01.36.04 1.23.21 2.23.35 3 .4h.2c.35 0 .55-.07.6-.2.24-.32.54-.48.88-.48.24 0 .46.05.64.16.43.16.71.56.84 1.2l-.2 6.84a623.27 623.27 0 0 0 .12 12.72l.04 2.2c0 .21.02.41.04.6l.08.56c.54.05.94.08 1.2.08.22 0 .38-.01.48-.04.59-.08 1.11.07 1.56.44.48.35.72.8.72 1.36 0 .72-.05 1.8-.16 3.24 0 .37-.02.9-.08 1.6-.05.56-.29.9-.72 1.04Zm-11.52-6.36a106 106 0 0 0 3.52-.36 16.6 16.6 0 0 0 2.6-.6c.27-3.23.4-6.68.4-10.36 0-3.41-.13-7.16-.4-11.24l-3.88-.2-.04 1.88c-.21 4.1-.36 7.17-.44 9.2a33.3 33.3 0 0 1-1.56 8.96l-.36 1.2a4.44 4.44 0 0 1-.76 1.6l.92-.08Zm22.8 1.8c-.62 0-1.07-.1-1.36-.28-.3-.19-.44-.53-.44-1.04 0-.8-.14-2.16-.4-4.08l-.16-.84-3.96-.6a47.3 47.3 0 0 0-.68 3.72c-.16 1.3-.42 2.17-.76 2.6a.95.95 0 0 1-.8.36c-.32 0-.62-.1-.88-.28a.95.95 0 0 1-.4-.76l.08-.2.04-.16a176.2 176.2 0 0 0 4-20.28 29 29 0 0 0 .12-1.64c.08-.99.16-1.77.24-2.36.1-.59.26-1.03.48-1.32h1.36c.37 0 .7.1.96.28.26.16.4.4.4.72 0 2.03.28 5.04.84 9.04.53 4.1.8 6.99.8 8.64 0 .16.06.57.2 1.24.13.61.2 1.01.2 1.2 0 .19.13.99.4 2.4.24 1.28.36 2.1.36 2.48v.04c0 .59-.22.96-.64 1.12Zm-2.64-7.68a7.7 7.7 0 0 1-.12-1.48c0-2.4-.22-5.47-.64-9.2l-.4-4.16c-1.15 6.27-1.94 11-2.36 14.2.4.27 1.57.48 3.52.64Z" fill="#0F805D"></path></svg><svg viewBox="0 0 52 52" fill="none" id="logo"><path d="M14.4 18.44s-1.86 1.12-2.27 2.96a10.5 10.5 0 0 0 0 3.86s-2.92 1.2-2.92 5c0 3.78 2.46 4.86 2.46 4.86s.03 4.47 2.79 6.88a9.44 9.44 0 0 0 5.65 2.43s1.5 3.18 5.93 3.18 5.94-3.18 5.94-3.18 3-.44 5.65-2.43c2.66-1.98 2.58-6.88 2.58-6.88s2.67-1.08 2.67-4.87-2.92-5-2.92-5 .42-2 0-3.85c-.42-1.84-2.28-2.96-2.28-2.96" fill="#B22EC8"></path><path d="M40.05 24.14c0-7.74-6.28-9.92-14.02-9.92-7.74 0-14.02 2.18-14.02 9.92a14.02 14.02 0 0 0 28.04 0Z" fill="#B22EC8"></path><path d="M26.47 47.6s3.8-2.65 3.55-8.75c1.63-1.7 2.13-3.97.65-6.74 2.5-3.56 2.24-7.42-.75-10.35 1.23-1.77.59-3.32-.8-4.47 0 0 4 1.96 7.08-.85 0 0 6.46 4.64 3.76 8.82 0 0 7.13 4.82.25 9.86 0 0 1 7.68-8.06 9.28 0 0-2.38 2.7-5.68 3.2Z" fill="#6A107A"></path><path d="M40.29 8.13c-3.09 14.4-12.55 9.49-13.84 6.96-1.28-2.53-.04-12.61 13.84-6.96Z" fill="#0F805D"></path><path d="M11.8 8.13c3.09 14.4 12.55 9.49 13.84 6.96 1.28-2.53.04-12.61-13.84-6.96Z" fill="#0F805D"></path><path d="M40.29 8.13c-3.09 14.4-12.55 9.49-13.84 6.96-1.29-2.53-.04-12.61 13.84-6.96v0Z" stroke="#000" stroke-width="2" stroke-miterlimit="10" stroke-linecap="round" stroke-linejoin="round"></path><path d="M32.91 11.05c-2.26.86-5.15 2.26-6.44 4.08m-14.67-7c3.09 14.4 12.55 9.49 13.84 6.96 1.28-2.53.04-12.61-13.84-6.96v0Z" stroke="#000" stroke-width="2" stroke-miterlimit="10" stroke-linecap="round" stroke-linejoin="round"></path><path d="M19.18 11.05c2.26.86 5.15 2.26 6.43 4.08m-11.2 3.31s-1.87 1.12-2.28 2.96a10.5 10.5 0 0 0 0 3.86s-2.92 1.2-2.92 5c0 3.78 2.46 4.86 2.46 4.86s.03 4.47 2.79 6.88a9.44 9.44 0 0 0 5.65 2.43s1.5 3.18 5.93 3.18 5.94-3.18 5.94-3.18 3-.44 5.65-2.43c2.66-1.98 2.58-6.88 2.58-6.88s2.67-1.08 2.67-4.87-2.92-5-2.92-5 .42-2 0-3.85c-.42-1.84-2.28-2.96-2.28-2.96" stroke="#000" stroke-width="2" stroke-miterlimit="10" stroke-linecap="round" stroke-linejoin="round"></path><path d="M30.5 21.29s-1.88 2-4.21 2m-4.38-2s1.89 2 4.22 2m10.03 5.26a3.9 3.9 0 0 1-4 3.78m-4.16-3.78a3.9 3.9 0 0 0 4 3.78m-7.53-3.78a3.9 3.9 0 0 1-4 3.78m-4.16-3.78a3.9 3.9 0 0 0 4 3.78m9.95 6.57c-.75 1-2.28 1.69-4.04 1.69m-4.3-1.81c.71 1.07 2.3 1.81 4.13 1.81m-4.17-1.55c0 .9-.56 1.7-1.45 2.27m9.88-2.27c0 .97.66 1.84 1.69 2.41m-15.1-10.63c0 1.7-1.2 3.15-2.84 3.62m4-13.18a4.02 4.02 0 0 1-4 4.05m19.43-4.05c0 2.24 1.8 4.05 4 4.05m-1.92 5.5a3.8 3.8 0 0 0 2.63 3.56" stroke="#000" stroke-width="2" stroke-miterlimit="10" stroke-linecap="round" stroke-linejoin="round"></path></svg><svg viewBox="0 0 32 32" fill="none" id="telegram"><circle cx="16" cy="16" r="15.5" stroke="#0F805D"></circle><path d="M23.16 7.81a1.24 1.24 0 0 0-1.26-.2l-14.33 5.8a1.23 1.23 0 0 0 .06 2.3l3.09 1.07 1.68 5.54.01.03a.39.39 0 0 0 .26.24l.02.01h.2l.01-.01a.4.4 0 0 0 .16-.1l.02-.01 2.4-2.66 3.52 2.72a1.24 1.24 0 0 0 1.96-.73l2.62-12.81a1.23 1.23 0 0 0-.42-1.19Zm-9.89 10.03-.56 2.75-1.19-3.9 5.86-3.05-4 4a.4.4 0 0 0-.1.2Zm6.91 3.81a.43.43 0 0 1-.28.32.42.42 0 0 1-.4-.06l-3.82-2.95a.4.4 0 0 0-.54.05l-1.68 1.85.57-2.75 5.75-5.75a.4.4 0 0 0-.47-.64l-8.29 4.32-3.13-1.09a.42.42 0 0 1-.29-.39.43.43 0 0 1 .27-.41l14.33-5.8a.43.43 0 0 1 .45.08.42.42 0 0 1 .14.41l-2.6 12.81Z" fill="#0F805D"></path></svg><svg viewBox="0 0 14 11" fill="none" id="vector"><path d="m5 11-5-5.2 1.59-1.61 3.41 3.51 7.41-7.7 1.59 1.66-9 9.34Z" fill="#0F805D"></path></svg><svg viewBox="0 0 32 32" fill="none" id="vk"><circle cx="16" cy="16" r="15.5" stroke="#0F805D"></circle><g clip-path="url(#vk_0)"><path d="M7.4 13.18c0-.5.34-.78 1.03-.82l2.64.02c.18 0 .3.07.36.22.27.74.58 1.38.91 1.91.34.54.78 1.16 1.33 1.86.04.09.12.13.23.13.08 0 .14-.03.2-.1l.04-.16.02-2.56c0-.18-.05-.3-.15-.36-.1-.06-.29-.1-.56-.13-.21-.03-.32-.14-.32-.32 0-.04 0-.07.02-.1.25-.63.96-.96 2.13-.96l1-.01c.44 0 .82.1 1.11.28.3.19.45.48.45.89v3.36c.08.05.16.07.23.07.18 0 .33-.09.46-.27 1.3-1.51 2-2.53 2.11-3.04l.04-.08c.08-.14.22-.27.4-.38.2-.11.36-.18.5-.22.05-.02.1-.03.16-.03h2.75l.18.01c.24 0 .42.1.55.28.05.06.08.13.1.2a1.27 1.27 0 0 1 .04.32v.1c-.08.4-.29.84-.63 1.3-.33.46-.76.95-1.28 1.49-.52.53-.85.88-.98 1.05-.1.11-.16.22-.16.32 0 .08.05.17.14.27l2.6 2.72c.14.16.2.33.2.52 0 .22-.1.41-.31.56a1.5 1.5 0 0 1-.77.25l-.3.02h-2.77l-.07.01c-.26 0-.5-.1-.73-.28l-1.66-1.75a.9.9 0 0 0-.25-.19 20.5 20.5 0 0 0-.36 1.32l-.05.25a.9.9 0 0 1-.75.62l-.25.02h-1.73a4.8 4.8 0 0 1-2.94-1.13 11.74 11.74 0 0 1-2.64-2.9 26.58 26.58 0 0 1-2.18-4.16 1.01 1.01 0 0 1-.09-.42Zm10.67 3.83a1.4 1.4 0 0 1-.68-.17c-.2-.12-.3-.27-.3-.47v-3.4c0-.2-.06-.34-.18-.42-.11-.09-.32-.13-.62-.13l-1 .03c-.52 0-.9.07-1.16.22.52.21.78.55.78 1v2.61a.85.85 0 0 1-.36.62c-.21.16-.45.24-.7.24a.92.92 0 0 1-.82-.43 14.94 14.94 0 0 1-2.06-3.31l-.16-.39-2.36-.01c-.16 0-.24 0-.26.02-.02.02-.03.06-.03.13a1 1 0 0 0 .04.28l.37.83c1 2.14 2.08 3.82 3.24 5.05 1.17 1.24 2.31 1.85 3.44 1.85h1.77c.07 0 .12-.01.16-.05.04-.03.07-.1.09-.2l.03-.15.34-1.3c.1-.17.18-.3.25-.35a.7.7 0 0 1 .46-.16c.29 0 .58.14.87.42l1.51 1.6c.1.13.2.2.3.2h2.93c.36 0 .53-.08.53-.23 0-.05-.01-.1-.05-.15l-2.57-2.67a.95.95 0 0 1-.3-.67c0-.24.09-.46.28-.68.15-.2.45-.52.9-.98.44-.46.83-.9 1.16-1.29.33-.4.55-.76.65-1.09l.06-.19a.2.2 0 0 1-.02-.1.3.3 0 0 0-.02-.1h-2.78a.97.97 0 0 0-.43.26l-.1.28a14.7 14.7 0 0 1-2.33 3.15c-.25.2-.54.3-.87.3Z" fill="#0F805D"></path></g><defs><clipPath id="vk_0"><path fill="#fff" transform="translate(6.4 8.8)" d="M0 0h19.2v15.09h-19.2z"></path></clipPath></defs></svg><svg viewBox="0 0 32 32" fill="none" id="youtube"><circle cx="16" cy="16" r="15.5" stroke="#0F805D"></circle><path d="m18.56 15.75-3.6-2.4a.3.3 0 0 0-.46.25v4.8a.3.3 0 0 0 .16.26c.04.03.09.04.14.04.06 0 .12-.02.16-.05l3.6-2.4a.3.3 0 0 0 0-.5Zm-3.46 2.09v-3.68l2.76 1.84-2.76 1.84Zm8.59-6.13a1.53 1.53 0 0 0-.91-1.02c-2.54-.98-6.6-.96-6.78-.96-.17 0-4.25-.02-6.78.96a1.53 1.53 0 0 0-.9 1.02c-.2.73-.42 2.06-.42 4.29s.22 3.56.41 4.29a1.53 1.53 0 0 0 .91 1.02c2.53.98 6.6.96 6.78.96h.05c.52 0 4.32-.03 6.73-.96a1.53 1.53 0 0 0 .9-1.02c.2-.73.42-2.06.42-4.29s-.23-3.56-.41-4.29Zm-.59 8.43a.9.9 0 0 1-.54.6c-2.43.95-6.52.93-6.56.93-.05 0-4.13.01-6.56-.92a.9.9 0 0 1-.54-.61c-.18-.7-.4-1.98-.4-4.14 0-2.16.22-3.44.4-4.14a.9.9 0 0 1 .54-.6c2.43-.95 6.51-.93 6.56-.93.04 0 4.13-.02 6.56.92a.9.9 0 0 1 .54.61c.18.7.4 1.98.4 4.14 0 2.16-.22 3.44-.4 4.14Z" fill="#0F805D"></path></svg></svg>