<svg viewBox="0 0 228 33" fill="none" xmlns="http://www.w3.org/2000/svg"><path d="M99.68 16.61a.23.23 0 0 0-.05-.13h.12l-.07.13Zm-9.59 13.5c.62-4.87 3.94-10.98 9.42-13.27.03 0 .05-.02.07-.04-1.35 2.56-2.06 5.28-3.58 7.8-1.32 2.2-3.56 3.94-5.9 5.5Zm-18.04-1.74c-.47.8-3.18 4.26-2.94 2.23.2-1.69.75-3.33 1.37-4.95 1.29-3.32 3.69-6.11 6.88-8.46-.82.97-1.17 2.24-1.55 3.31a44.69 44.69 0 0 1-3.76 7.87Zm-7.13-22.67c-1.97-2.28 1.58-1.05 3.24-.64 2.73.69 5.33 1.85 7.7 3.1 3.63 1.9 7.13 3.96 9.42 6.87-7.89-1.25-15.69-3.9-20.36-9.33Zm23.77.68c-.9-.6-1.69-1.27-2.47-1.96.17.16-2.43-3.06-2.3-3.02a42.16 42.16 0 0 1 13.68 6.46c2.93 2.12 4.78 5.02 7.58 7.22-3.99-1.4-7.32-3.37-10.88-5.35a78.27 78.27 0 0 1-5.6-3.35Zm-42.61 23.07c-1.56 1.47-1.95 1.12-1.94-.67 0-1.9 1.1-3.7 2.3-5.3 2-2.65 5.18-4.7 8.02-6.79h.1c-2.62 4.42-4.42 8.93-8.48 12.76Zm-15.52-9.07c-1.71 2.4-3.21 4.97-6.66 5.95.73-4.45 4.92-7.9 10.12-9.5-1.52.87-2.62 2.37-3.46 3.55Zm-28.24-4.52c5.75-1.56 11.23-1.4 17-.3l-3.24.03c-.4 0-.55.3-.47.52-4.57.54-9.35 1.76-13.3-.25Zm17.61-10.75c7.57.07 13.15 5.2 18.07 9.41-3.3-1.22-6.95-1.83-10.07-3.47-3.05-1.6-5.38-3.93-8-5.94Zm19.44-1.56c9.05 1.4 16.4 5.14 21 11.35-8.1-1.57-17.28-5.21-21-11.35Zm72.26 12.22-4.85-.1c.06-.11.05-.25-.08-.37-3.51-3.14-6.26-6.63-10.35-9.35-3.9-2.6-8.6-4.29-13.38-5.62-.33-.1-.74.2-.6.47 1.93 3.7 5.4 6.19 9.43 8.54 3.54 2.07 7.63 5.13 12.06 6.26-5.74-.12-11.5-.2-17.24-.26-1.29-2.82-4.77-4.81-7.75-6.52a42.02 42.02 0 0 0-15.54-5.42c-.36-.05-.67.16-.58.45 1.06 3.56 5.3 6.17 8.96 8.14a36.11 36.11 0 0 0 8.26 3.3 2839 2839 0 0 0-18.46-.02c-2.55-7.35-14.16-11.49-22.9-12.68-.36-.04-.82.19-.66.51 2.97 5.84 11.5 10.6 19.6 12.19-5.86.02-11.73.05-17.59.1a.35.35 0 0 0-.13-.11c-.23-.11-.48-.2-.72-.31-5.28-4.99-11.57-11.29-20.67-10.78-.52.03-.85.51-.44.83 2.76 2.1 5.24 4.55 8.34 6.35 3.34 1.94 7.29 3.14 11.28 4.04l-15.31.13c-6.77-2.8-14.99-2.74-21.93-.37-.44.15-.5.7-.16.94 2.56 1.7 5.73 1.9 8.98 1.84 3.9-.07 8.96-.23 12.66-1.26.15-.04.22-.14.23-.24l10.23.08c-5.41 1.56-9.2 5.78-9.45 10.33-.01.24.31.4.6.35 2.9-.6 4.74-2.12 6.27-4.07.9-1.14 1.64-2.36 2.54-3.5 1.07-1.37 2.37-2.08 4.02-2.92.09-.04.13-.1.16-.15 5.54.05 11.07.09 16.61.11-6.02 3.58-11.65 8.64-9.95 14.9.06.26.5.47.82.37 3.02-.96 4.8-3.54 6.36-5.63 2.3-3.07 3.77-6.3 5.34-9.61v-.02c6.93.03 13.86.05 20.79.02-5.82 3.23-9.2 10.18-8.71 15.5.02.22.25.49.59.46 2.87-.26 4.67-3.76 5.59-5.5 1.73-3.27 2.67-7.62 5.34-10.47a1626 1626 0 0 0 19.35-.2c-6.45 1.8-10.12 10.04-9.95 14.8.02.47.71.65 1.15.36 6.25-4.13 8.82-9.12 10.91-15.2 3.65-.07 7.3-.14 10.93-.24.38-.01.38-.44 0-.45Zm16.62.71h.12a.23.23 0 0 0-.05.13l-.07-.13Zm3.75 8.12c-1.52-2.52-2.23-5.24-3.58-7.8l.07.04c5.48 2.29 8.8 8.4 9.42 13.27-2.35-1.57-4.6-3.3-5.91-5.5Zm20.19-4.1c-.38-1.07-.73-2.34-1.55-3.31 3.2 2.35 5.6 5.14 6.88 8.46a20.6 20.6 0 0 1 1.37 4.95c.24 2.03-2.47-1.43-2.94-2.23a44.73 44.73 0 0 1-3.76-7.87Zm-9.47-5.47c2.29-2.9 5.8-4.97 9.42-6.88a35.05 35.05 0 0 1 7.7-3.09c1.66-.4 5.21-1.64 3.24.64-4.67 5.43-12.47 8.08-20.36 9.33Zm-9.01-5.3c-3.57 1.98-6.9 3.96-10.89 5.35 2.8-2.2 4.65-5.1 7.58-7.22a42.17 42.17 0 0 1 13.69-6.46c.12-.04-2.49 3.18-2.3 3.02-.8.69-1.59 1.36-2.48 1.96a78.18 78.18 0 0 1-5.6 3.35Zm39.74 6.96h.09c2.84 2.09 6.01 4.14 8.01 6.8 1.2 1.59 2.3 3.4 2.31 5.29 0 1.79-.38 2.14-1.94.67-4.06-3.83-5.86-8.34-8.47-12.76Zm20.53.14c5.2 1.6 9.4 5.05 10.12 9.5-3.45-.98-4.95-3.55-6.66-5.95-.84-1.18-1.94-2.68-3.46-3.55Zm18.42-.72c.07-.23-.08-.51-.48-.52l-3.25-.02c5.78-1.11 11.26-1.28 17.01.3-3.94 2-8.72.78-13.28.24Zm-12.33-5.06c-3.12 1.64-6.77 2.25-10.07 3.47 4.92-4.2 10.5-9.34 18.07-9.41-2.62 2-4.95 4.34-8 5.94Zm-32.44 3.85c4.6-6.21 11.95-9.95 21-11.35-3.72 6.14-12.9 9.78-21 11.35Zm-51.26 1.32c3.64.1 7.28.17 10.93.24 2.08 6.08 4.66 11.07 10.9 15.2.45.3 1.14.11 1.16-.37.17-4.75-3.5-12.99-9.95-14.8 6.45.11 12.9.17 19.35.2 2.67 2.86 3.6 7.2 5.34 10.49.92 1.73 2.72 5.23 5.6 5.49.33.03.56-.24.58-.46.49-5.32-2.89-12.27-8.7-15.5 6.92.03 13.85.01 20.78-.02v.02c1.57 3.32 3.04 6.54 5.33 9.61 1.56 2.09 3.35 4.67 6.37 5.63.32.1.76-.11.82-.37 1.7-6.26-3.93-11.32-9.95-14.9 5.54-.02 11.07-.06 16.6-.11.04.05.08.1.17.15 1.65.84 2.95 1.55 4.02 2.91.9 1.15 1.64 2.37 2.54 3.51 1.53 1.95 3.36 3.48 6.27 4.07.29.06.62-.11.6-.35-.26-4.55-4.04-8.77-9.45-10.33l10.24-.08c0 .1.08.2.22.24 3.7 1.03 8.76 1.19 12.66 1.26 3.24.06 6.42-.14 8.98-1.84.34-.23.28-.79-.16-.94-6.94-2.37-15.16-2.43-21.93.37l-15.31-.13c4-.9 7.94-2.1 11.28-4.04 3.1-1.8 5.58-4.26 8.34-6.35.41-.32.08-.8-.44-.83-9.1-.5-15.39 5.8-20.67 10.78l-.72.3a.35.35 0 0 0-.13.12c-5.86-.05-11.73-.08-17.59-.1 8.1-1.58 16.63-6.35 19.6-12.19.16-.32-.3-.55-.65-.5-8.75 1.18-20.36 5.32-22.91 12.67-6.16-.01-12.31 0-18.47.03 3.08-.74 6.1-2.14 8.27-3.3 3.66-1.98 7.9-4.59 8.96-8.15.1-.29-.22-.5-.58-.45a42.01 42.01 0 0 0-15.54 5.42c-2.98 1.7-6.47 3.7-7.75 6.52-5.75.05-11.5.14-17.24.26 4.43-1.13 8.52-4.2 12.06-6.26 4.04-2.35 7.5-4.85 9.44-8.54.14-.27-.28-.56-.6-.47-4.78 1.33-9.5 3.03-13.39 5.62-4.1 2.72-6.84 6.21-10.35 9.35-.13.12-.14.26-.08.36l-4.85.11c-.38 0-.38.44 0 .45Z" fill="#8E9892" fill-opacity=".7"/></svg>